<?xml version="1.0" standalone="no"?>
<!DOCTYPE svg PUBLIC "-//W3C//DTD SVG 20010904//EN"
 "http://www.w3.org/TR/2001/REC-SVG-20010904/DTD/svg10.dtd">
<svg version="1.0" xmlns="http://www.w3.org/2000/svg"
 width="512.000000pt" height="512.000000pt" viewBox="0 0 512.000000 512.000000"
 preserveAspectRatio="xMidYMid meet">
<metadata>
Created by potrace 1.14, written by Peter Selinger 2001-2017
</metadata>
<g transform="translate(0.000000,512.000000) scale(0.100000,-0.100000)"
fill="#000000" stroke="none">
<path d="M1460 3393 c-48 -8 -125 -36 -160 -58 -71 -46 -114 -108 -157 -230
l-28 -80 0 -440 c0 -433 0 -441 23 -515 64 -204 162 -286 374 -313 166 -21
335 18 416 96 81 77 122 207 122 384 l0 123 -159 0 -158 0 -6 -127 c-8 -199
-35 -247 -139 -244 -68 1 -98 23 -120 87 -16 44 -17 96 -15 519 2 429 4 473
20 506 10 20 30 42 44 50 39 21 118 17 151 -8 46 -34 55 -67 60 -210 l5 -133
158 0 159 0 2 83 c3 184 -15 265 -85 369 -35 53 -53 68 -107 96 -36 18 -89 37
-119 42 -52 10 -230 12 -281 3z"/>
<path d="M2317 2588 c-86 -431 -157 -786 -157 -791 0 -4 71 -6 157 -5 l157 3
30 168 30 167 132 0 132 0 12 -67 c6 -38 19 -115 28 -173 l17 -105 153 -3
c141 -2 152 -1 152 15 0 10 -70 367 -155 793 -85 426 -155 776 -155 777 0 2
-84 3 -188 3 l-187 0 -158 -782z m398 59 c25 -158 45 -295 45 -302 0 -12 -19
-15 -95 -15 -87 0 -95 2 -95 19 0 10 20 148 45 305 25 158 45 290 46 294 2 20
12 -37 54 -301z"/>
<path d="M3130 3250 l0 -120 130 0 130 0 0 -675 0 -675 165 0 165 0 0 675 0
675 130 0 131 0 -3 118 -3 117 -422 3 -423 2 0 -120z"/>
</g>
</svg>
